<?xml version="1.0" encoding="UTF-8" standalone="no"?>
<svg
   xmlns:dc="http://purl.org/dc/elements/1.1/"
   xmlns:cc="http://creativecommons.org/ns#"
   xmlns:rdf="http://www.w3.org/1999/02/22-rdf-syntax-ns#"
   xmlns:svg="http://www.w3.org/2000/svg"
   xmlns="http://www.w3.org/2000/svg"
   version="1.1"
   id="svg3336"
   viewBox="0 0 256 256.00001"
   height="256"
   width="256">
  <defs
     id="defs3338" />
  <metadata
     id="metadata3341">
    <rdf:RDF>
      <cc:Work
         rdf:about="">
        <dc:format>image/svg+xml</dc:format>
        <dc:type
           rdf:resource="http://purl.org/dc/dcmitype/StillImage" />
        <dc:title></dc:title>
      </cc:Work>
    </rdf:RDF>
  </metadata>
  <g
     transform="translate(0,-796.3622)"
     id="layer1">
    <rect
       ry="7.9657688"
       y="816.64789"
       x="20"
       height="216.07143"
       width="216.42857"
       id="rect3429"
       style="fill:#0e3e9a;fill-opacity:1;stroke:none" />
    <rect
       ry="0"
       y="889.13458"
       x="40.680725"
       height="90.176247"
       width="16.032614"
       id="rect4241"
       style="fill:#59a5d8;fill-opacity:1;stroke:none;stroke-width:3.645926;stroke-miterlimit:4;stroke-dasharray:none;stroke-opacity:1" />
    <rect
       style="fill:#59a5d8;fill-opacity:1;stroke:none;stroke-width:3.645926;stroke-miterlimit:4;stroke-dasharray:none;stroke-opacity:1"
       id="rect4243"
       width="16.032614"
       height="104.44824"
       x="67.129517"
       y="889.13458"
       ry="0" />
    <rect
       ry="0"
       y="889.13458"
       x="93.900864"
       height="125.69029"
       width="16.032614"
       id="rect4245"
       style="fill:#59a5d8;fill-opacity:1;stroke:none;stroke-width:3.645926;stroke-miterlimit:4;stroke-dasharray:none;stroke-opacity:1" />
    <rect
       style="fill:#59a5d8;fill-opacity:1;stroke:none;stroke-width:3.645926;stroke-miterlimit:4;stroke-dasharray:none;stroke-opacity:1"
       id="rect4247"
       width="16.032614"
       height="82.210472"
       x="119.70457"
       y="889.13458"
       ry="0" />
    <rect
       ry="0"
       y="889.13458"
       x="146.47591"
       height="111.7502"
       width="16.032614"
       id="rect4249"
       style="fill:#59a5d8;fill-opacity:1;stroke:none;stroke-width:3.645926;stroke-miterlimit:4;stroke-dasharray:none;stroke-opacity:1" />
    <rect
       style="fill:#59a5d8;fill-opacity:1;stroke:none;stroke-width:3.645926;stroke-miterlimit:4;stroke-dasharray:none;stroke-opacity:1"
       id="rect4251"
       width="16.032614"
       height="117.39261"
       x="173.24725"
       y="889.13458"
       ry="0" />
    <rect
       ry="0"
       y="889.13458"
       x="199.3735"
       height="126.0222"
       width="16.032614"
       id="rect4253"
       style="fill:#59a5d8;fill-opacity:1;stroke:none;stroke-width:3.645926;stroke-miterlimit:4;stroke-dasharray:none;stroke-opacity:1" />
    <path
       id="path3439"
       d="m 30.966575,948.74688 22.900787,20.24633 38.060464,-19.58251 27.093884,8.62958 50.96232,-18.25488 26.77135,2.32335 29.2872,35.84594"
       style="fill:none;fill-rule:evenodd;stroke:#7ae4dc;stroke-width:3.66456342;stroke-linecap:butt;stroke-linejoin:miter;stroke-miterlimit:4;stroke-dasharray:none;stroke-opacity:1" />
    <g
       transform="matrix(0.90312966,0,0,0.92933948,12.903982,65.670533)"
       id="text4255"
       style="font-style:normal;font-variant:normal;font-weight:bold;font-stretch:normal;font-size:50px;line-height:125%;font-family:STIXIntegralsD;-inkscape-font-specification:'STIXIntegralsD, Bold';text-align:start;letter-spacing:0px;word-spacing:0px;writing-mode:lr-tb;text-anchor:start;fill:#7ae4dc;fill-opacity:1;stroke:none;stroke-width:1px;stroke-linecap:butt;stroke-linejoin:miter;stroke-opacity:1">
      <path
         id="path4260"
         d="m 39.589844,824.4834 25.366211,0 0,7.10449 -15.966797,0 0,6.78711 15.014648,0 0,7.10449 -15.014648,0 0,15.4541 -9.399414,0 0,-36.45019 z" />
      <path
         id="path4262"
         d="m 82.705078,848.62891 q -2.734375,0 -4.125976,0.92773 -1.367188,0.92773 -1.367188,2.73438 0,1.66015 1.098633,2.6123 1.123047,0.92773 3.100586,0.92773 2.46582,0 4.15039,-1.75781 1.684571,-1.78222 1.684571,-4.44336 l 0,-1.00097 -4.541016,0 z m 13.354492,-3.2959 0,15.60058 -8.813476,0 0,-4.05273 q -1.757813,2.49023 -3.955078,3.63769 -2.197266,1.12305 -5.34668,1.12305 -4.248047,0 -6.90918,-2.46582 -2.636719,-2.49023 -2.636719,-6.44531 0,-4.80957 3.295899,-7.05567 3.320312,-2.24609 10.400391,-2.24609 l 5.151367,0 0,-0.68359 q 0,-2.0752 -1.635742,-3.02735 -1.635743,-0.97656 -5.10254,-0.97656 -2.807617,0 -5.224609,0.56152 -2.416992,0.56153 -4.492187,1.68457 l 0,-6.66503 q 2.807617,-0.6836 5.639648,-1.0254 2.832031,-0.36621 5.664063,-0.36621 7.39746,0 10.668945,2.92969 3.295898,2.90527 3.295898,9.47266 z" />
      <path
         id="path4264"
         d="m 125.60059,834.44434 0,6.64062 q -2.80762,-1.17187 -5.41993,-1.75781 -2.6123,-0.58594 -4.93164,-0.58594 -2.49023,0 -3.71093,0.63477 -1.19629,0.61035 -1.19629,1.90429 0,1.04981 0.90332,1.61133 0.92773,0.56152 3.2959,0.83008 l 1.53808,0.21973 q 6.71387,0.85449 9.0332,2.80761 2.31934,1.95313 2.31934,6.12793 0,4.37012 -3.22266,6.56739 -3.22265,2.19726 -9.61914,2.19726 -2.70996,0 -5.61523,-0.43945 -2.88086,-0.41504 -5.93262,-1.26953 l 0,-6.64063 q 2.61231,1.26953 5.34668,1.9043 2.75879,0.63476 5.59082,0.63476 2.56348,0 3.85742,-0.708 1.29395,-0.70801 1.29395,-2.09961 0,-1.17188 -0.90332,-1.7334 -0.87891,-0.58594 -3.54004,-0.90332 l -1.53809,-0.19531 q -5.83496,-0.73243 -8.17871,-2.70996 -2.34375,-1.97754 -2.34375,-6.00586 0,-4.34571 2.97852,-6.44532 2.97851,-2.09961 9.13086,-2.09961 2.41699,0 5.07812,0.36621 2.66114,0.36622 5.78614,1.14747 z" />
      <path
         id="path4266"
         d="m 143.56934,825.82617 0,7.76367 9.00878,0 0,6.25 -9.00878,0 0,11.59668 q 0,1.9043 0.75683,2.58789 0.75684,0.65918 3.00293,0.65918 l 4.49219,0 0,6.25 -7.49512,0 q -5.17578,0 -7.34863,-2.14843 -2.14844,-2.17286 -2.14844,-7.34864 l 0,-11.59668 -4.3457,0 0,-6.25 4.3457,0 0,-7.76367 8.74024,0 z" />
      <path
         id="path4268"
         d="m 175.99121,861.59277 -0.73242,0 q -9.00879,0 -14.01367,-4.98047 -5.00489,-4.98046 -5.00489,-13.86718 0,-8.86231 4.98047,-13.8916 5.00489,-5.0293 13.76953,-5.0293 8.86231,0 13.79395,4.98047 4.95605,4.98047 4.95605,13.94043 0,6.15234 -2.63671,10.5957 -2.61231,4.44336 -7.54395,6.68945 l 7.34863,8.20313 -8.95996,0 -5.95703,-6.64063 z m -1.00098,-30.95703 q -4.29687,0 -6.66503,3.17383 -2.36817,3.17383 -2.36817,8.93555 0,5.85937 2.31934,8.98437 2.31933,3.10059 6.71386,3.10059 4.32129,0 6.68946,-3.17383 2.36816,-3.17383 2.36816,-8.91113 0,-5.76172 -2.36816,-8.93555 -2.36817,-3.17383 -6.68946,-3.17383 z" />
      <path
         id="path4270"
         d="m 209.97559,825.82617 0,7.76367 9.00878,0 0,6.25 -9.00878,0 0,11.59668 q 0,1.9043 0.75683,2.58789 0.75684,0.65918 3.00293,0.65918 l 4.49219,0 0,6.25 -7.49512,0 q -5.17578,0 -7.34863,-2.14843 -2.14844,-2.17286 -2.14844,-7.34864 l 0,-11.59668 -4.3457,0 0,-6.25 4.3457,0 0,-7.76367 8.74024,0 z" />
    </g>
  </g>
</svg>
